# xmcd CD database file
#
# Track frame offsets:
#	150
#	14182
#	25332
#	37640
#	49812
#	61660
#	74515
#	86672
#	98192
#	109637
#
# Disc length: 1636 seconds
#
# Revision: 2
# Processed by: cddbd v1.5.2PL0 Copyright (c) Steve Scherf et al.
# Submitted via: CDex 1.51
#
DISCID=7d06620a
DTITLE=B.B.King - Boss Of The Blues
DYEAR=1900
DGENRE=Blues
TTITLE0=Bad Breaks
TTITLE1=You Don't Know
TTITLE2=Worry, Worry, Worry
TTITLE3=The Blues Has Got Me
TTITLE4=Please Accept My Love
TTITLE5=I Had A Woman
TTITLE6=You Know I Go For You
TTITLE7=That's How Much You Mean To Me
TTITLE8=Days Of Old
TTITLE9=Why Do Everything Happen To Me
EXTD=
EXTT0=
EXTT1=
EXTT2=
EXTT3=
EXTT4=
EXTT5=
EXTT6=
EXTT7=
EXTT8=
EXTT9=
PLAYORDER=
